<?xml version="1.0" standalone="no"?>
<!DOCTYPE svg PUBLIC "-//W3C//DTD SVG 20010904//EN"
 "http://www.w3.org/TR/2001/REC-SVG-20010904/DTD/svg10.dtd">
<svg version="1.0" xmlns="http://www.w3.org/2000/svg"
 width="512.000000pt" height="512.000000pt" viewBox="0 0 512.000000 512.000000"
 preserveAspectRatio="xMidYMid meet">
<metadata>
Created by potrace 1.11, written by Peter Selinger 2001-2013
</metadata>
<g transform="translate(0.000000,512.000000) scale(0.100000,-0.100000)"
fill="#000000" stroke="none">
<path d="M2680 4008 c-346 -49 -594 -311 -675 -712 -23 -113 -30 -313 -16
-420 38 -279 181 -503 404 -631 62 -36 86 -55 83 -66 -2 -9 -140 -263 -306
-564 -237 -429 -301 -551 -293 -564 9 -13 37 -16 175 -19 128 -2 168 1 176 11
6 7 136 257 288 555 l276 542 99 0 99 0 0 -539 c0 -297 3 -546 6 -555 5 -14
28 -16 150 -16 141 0 144 0 149 23 3 12 4 680 3 1485 -3 1287 -5 1464 -18
1472 -19 12 -513 11 -600 -2z m310 -928 l0 -690 -113 0 c-186 0 -281 34 -388
140 -74 72 -116 147 -150 262 -30 104 -38 366 -15 492 41 216 134 363 276 436
70 36 135 48 268 49 l122 1 0 -690z"/>
</g>
</svg>
